<svg width="86" height="13" viewBox="0 0 86 13" fill="none" xmlns="http://www.w3.org/2000/svg">
<path d="M0 6.07648C0 4.63116 0.25 3.44171 0.75 2.50812C1.25391 1.57452 1.75391 0.869446 2.25 0.392883C2.45312 0.197571 2.61719 0.150696 2.74219 0.252258L3.23438 0.644836C3.36719 0.750305 3.36719 0.89093 3.23438 1.06671C2.92578 1.46906 2.60156 2.03937 2.26172 2.77765C1.92578 3.51202 1.75781 4.61163 1.75781 6.07648C1.75781 7.54132 1.92578 8.64093 2.26172 9.37531C2.60156 10.1136 2.92578 10.6839 3.23438 11.0862C3.36719 11.262 3.36719 11.4026 3.23438 11.5081L2.74219 11.9007C2.61719 12.0023 2.45312 11.9554 2.25 11.7601C1.75391 11.2835 1.25391 10.5784 0.75 9.64484C0.25 8.71124 0 7.52179 0 6.07648ZM4.27411 9.26398L9.11011 0.899977L13.9341 9.26398H4.27411ZM21.4368 6.03598C21.4288 6.57198 21.3488 7.04798 21.1968 7.46398C21.0528 7.87998 20.8408 8.23198 20.5608 8.51998C20.2808 8.79998 19.9448 9.01598 19.5528 9.16798C19.1688 9.31198 18.7328 9.38398 18.2448 9.38398C17.7888 9.38398 17.3688 9.31198 16.9848 9.16798C16.6008 9.01598 16.2688 8.79998 15.9888 8.51998C15.7088 8.23198 15.4888 7.87998 15.3288 7.46398C15.1768 7.04798 15.0968 6.57198 15.0888 6.03598H16.9128C16.9208 6.45198 16.9688 6.80398 17.0568 7.09198C17.1528 7.37198 17.3008 7.58398 17.5008 7.72798C17.7008 7.87198 17.9568 7.94398 18.2688 7.94398C18.5808 7.94398 18.8328 7.87198 19.0248 7.72798C19.2248 7.58398 19.3728 7.37198 19.4688 7.09198C19.5648 6.80398 19.6128 6.45198 19.6128 6.03598H21.4368ZM22.5905 9.26398L27.4265 0.899977L32.2505 9.26398H22.5905ZM33.4922 11.5081C33.3594 11.4026 33.3594 11.262 33.4922 11.0862C33.8008 10.6839 34.123 10.1136 34.459 9.37531C34.7988 8.64093 34.9688 7.54132 34.9688 6.07648C34.9688 4.61163 34.7988 3.51202 34.459 2.77765C34.123 2.03937 33.8008 1.46906 33.4922 1.06671C33.3594 0.89093 33.3594 0.750305 33.4922 0.644836L33.9844 0.252258C34.1094 0.150696 34.2734 0.197571 34.4766 0.392883C34.9727 0.869446 35.4707 1.57452 35.9707 2.50812C36.4746 3.44171 36.7266 4.63116 36.7266 6.07648C36.7266 7.52179 36.4746 8.71124 35.9707 9.64484C35.4707 10.5784 34.9727 11.2835 34.4766 11.7601C34.2734 11.9554 34.1094 12.0023 33.9844 11.9007L33.4922 11.5081ZM47.2092 0.479976C47.1052 0.695976 47.0092 0.923977 46.9212 1.16398C46.8332 1.40398 46.7532 1.62398 46.6812 1.82398C46.5132 2.27998 46.3132 2.77198 46.0812 3.29998C45.8572 3.82798 45.6052 4.34798 45.3252 4.85998C45.0532 5.36398 44.7532 5.81998 44.4252 6.22798C44.0892 6.65198 43.6812 7.08798 43.2012 7.53598C42.7292 7.97598 42.2092 8.38798 41.6412 8.77198C41.0812 9.14798 40.4932 9.45998 39.8772 9.70798L38.5092 8.30398C39.1332 8.08798 39.7252 7.81998 40.2852 7.49998C40.8452 7.17998 41.3612 6.81998 41.8332 6.41998C42.3052 6.01998 42.7172 5.60798 43.0692 5.18398C43.4532 4.71998 43.7932 4.19598 44.0892 3.61198C44.3932 3.01998 44.6492 2.41198 44.8572 1.78798C45.0732 1.16398 45.2332 0.567977 45.3372 -2.31266e-05L47.2092 0.479976ZM50.5488 9.26398C50.2754 9.26398 50.1387 9.11749 50.1387 8.82452V1.30109C50.1387 1.00812 50.2754 0.861633 50.5488 0.861633H52.248C52.4746 0.861633 52.6367 1.01788 52.7344 1.33038L54.3223 6.46906C54.3926 6.69171 54.4414 6.87531 54.4688 7.01984C54.4961 7.16046 54.5195 7.32843 54.5391 7.52374H54.5742C54.5938 7.32843 54.6172 7.16046 54.6445 7.01984C54.6719 6.87531 54.7207 6.69171 54.791 6.46906L56.3789 1.33038C56.4766 1.01788 56.6387 0.861633 56.8652 0.861633H58.5645C58.8379 0.861633 58.9746 1.00812 58.9746 1.30109V8.82452C58.9746 9.11749 58.8379 9.26398 58.5645 9.26398H57.6738C57.4004 9.26398 57.2637 9.11749 57.2637 8.82452V3.98468C57.2637 3.75031 57.2734 3.51593 57.293 3.28156H57.252L55.5586 8.78937C55.4609 9.10577 55.293 9.26398 55.0547 9.26398H54.0586C53.8203 9.26398 53.6523 9.10577 53.5547 8.78937L51.8613 3.28156H51.8203C51.8398 3.51593 51.8496 3.75031 51.8496 3.98468V8.82452C51.8496 9.11749 51.7129 9.26398 51.4395 9.26398H50.5488ZM60.3281 3.56866C60.2227 3.26398 60.2871 3.11163 60.5215 3.11163H61.5703C61.75 3.11163 61.8672 3.21124 61.9219 3.41046L62.8066 6.68585C62.8496 6.8382 62.8867 7.03546 62.918 7.27765C62.9531 7.51593 62.9707 7.66827 62.9707 7.73468H63.0059C63.0527 7.52765 63.0859 7.36359 63.1055 7.24249C63.1289 7.11749 63.1895 6.87726 63.2871 6.52179L64.125 3.41046C64.1797 3.21124 64.2969 3.11163 64.4766 3.11163H65.5254C65.7559 3.11163 65.8203 3.26398 65.7188 3.56866L63.7441 9.51007C63.5137 10.2054 63.2305 10.7484 62.8945 11.139C62.5586 11.5296 62.0918 11.7249 61.4941 11.7249C61.166 11.7249 60.873 11.6976 60.6152 11.6429C60.4668 11.6116 60.4102 11.5101 60.4453 11.3382L60.5742 10.6937C60.6094 10.5257 60.709 10.4671 60.873 10.5179C60.9941 10.5569 61.1074 10.5765 61.2129 10.5765C61.5293 10.5765 61.7695 10.4261 61.9336 10.1253C62.1016 9.82452 62.2129 9.56671 62.2676 9.35187L62.2852 9.26398L60.3281 3.56866ZM70.2832 7.62335C70.2832 6.8421 70.6562 6.2757 71.4023 5.92413C72.1484 5.57257 73 5.38507 73.957 5.36163V5.12726C73.957 4.76788 73.8672 4.51398 73.6875 4.36554C73.5078 4.2171 73.2578 4.14288 72.9375 4.14288C72.7109 4.14288 72.5098 4.17609 72.334 4.24249C72.1621 4.30499 72.0117 4.37921 71.8828 4.46515C71.7578 4.54718 71.6445 4.63116 71.543 4.7171C71.3633 4.87335 71.2148 4.88116 71.0977 4.74054L70.6113 4.14288C70.4902 3.99445 70.5195 3.8421 70.6992 3.68585C70.8359 3.56476 70.9941 3.45929 71.1738 3.36945C71.3574 3.2796 71.5996 3.19562 71.9004 3.11749C72.2012 3.03546 72.5918 2.99445 73.0723 2.99445C73.8848 2.99445 74.5078 3.18195 74.9414 3.55695C75.3789 3.93195 75.5977 4.48468 75.5977 5.21515V8.91241C75.5977 9.14679 75.4805 9.26398 75.2461 9.26398H74.2852C74.0742 9.26398 73.9688 9.14679 73.9688 8.91241V8.73663H73.957C73.7266 8.95929 73.4492 9.12335 73.125 9.22882C72.8047 9.33038 72.5098 9.38116 72.2402 9.38116C71.5996 9.38116 71.1133 9.22491 70.7812 8.91241C70.4492 8.59601 70.2832 8.16632 70.2832 7.62335ZM72.0176 7.5882C72.0176 7.72491 72.0449 7.84406 72.0996 7.94562C72.1543 8.04327 72.2402 8.11554 72.3574 8.16241C72.4746 8.20929 72.6055 8.23273 72.75 8.23273C72.9492 8.23273 73.1426 8.20538 73.3301 8.1507C73.5176 8.09601 73.7266 7.9671 73.957 7.76398V6.49249C73.3008 6.56671 72.8613 6.66241 72.6387 6.7796C72.416 6.89679 72.2559 7.01788 72.1582 7.14288C72.0645 7.26788 72.0176 7.41632 72.0176 7.5882ZM77.5488 9.26398C77.3145 9.26398 77.1973 9.14679 77.1973 8.91241V3.4632C77.1973 3.22882 77.3145 3.11163 77.5488 3.11163H78.4746C78.709 3.11163 78.8262 3.22882 78.8262 3.4632V3.94366H78.8496C78.9512 3.69366 79.1211 3.47296 79.3594 3.28156C79.5977 3.09015 79.8789 2.99445 80.2031 2.99445C80.4258 2.99445 80.6094 3.02179 80.7539 3.07648C80.8906 3.12726 80.9434 3.22101 80.9121 3.35773L80.748 4.05499C80.7129 4.21124 80.6074 4.25812 80.4316 4.19562C80.3301 4.16046 80.2324 4.14288 80.1387 4.14288C79.7637 4.14288 79.4531 4.36749 79.207 4.81671C78.9609 5.26593 78.8379 5.92023 78.8379 6.7796V8.91241C78.8379 9.14679 78.7207 9.26398 78.4863 9.26398H77.5488ZM81.5977 4.28351C81.3672 4.28351 81.252 4.18585 81.252 3.99054V3.4046C81.252 3.20929 81.3672 3.11163 81.5977 3.11163H81.9961V2.90656C81.9961 2.73077 82.0371 2.57062 82.1191 2.42609L82.5703 1.63507C82.6562 1.48663 82.7578 1.41241 82.875 1.41241H83.2852C83.5195 1.41241 83.6367 1.5296 83.6367 1.76398V3.11163H84.5859C84.8164 3.11163 84.9316 3.20929 84.9316 3.4046V3.99054C84.9316 4.18585 84.8164 4.28351 84.5859 4.28351H83.6367V7.18976C83.6367 7.5882 83.6641 7.87531 83.7188 8.05109C83.7773 8.22296 83.9258 8.3089 84.1641 8.3089C84.2852 8.3089 84.4219 8.28937 84.5742 8.25031C84.7266 8.20734 84.8457 8.16632 84.9316 8.12726C85.0684 8.06476 85.1582 8.10968 85.2012 8.26202L85.377 8.92999C85.4121 9.06281 85.3613 9.16046 85.2246 9.22296C85.0957 9.28156 84.918 9.33429 84.6914 9.38116C84.4688 9.43195 84.2441 9.45734 84.0176 9.45734C83.459 9.45734 82.9824 9.3421 82.5879 9.11163C82.1934 8.88116 81.9961 8.40656 81.9961 7.68781V4.28351H81.5977Z" fill="black"/>
</svg>
