<?xml version="1.0" encoding="UTF-8"?>
<svg id="Layer_2" data-name="Layer 2" xmlns="http://www.w3.org/2000/svg" viewBox="0 0 316 555.57">
  <g id="expanded">
    <path d="M310.45,242.38l-1.89,155.19c0,84.06-68.39,152.45-152.45,152.45-76.05,0-138.17-50.59-149.53-123.5-1.7,1.58-3.21,3.5-4.69,5.45,13.66,73.31,77.01,123.6,154.22,123.6,87.12,0,158-70.88,158-158l1.89-159.62c-2.11.99-4,2.52-5.55,4.43Z"/>
    <path d="M316,189.5v-31.49C316,70.88,245.12,0,158,0S0,70.88,0,158v229.97c1.81-1.9,3.67-3.81,5.55-5.71v-224.26C5.55,73.94,73.94,5.55,158,5.55s152.45,68.39,152.45,152.45v32.62c2-.04,3.83-.46,5.55-1.12Z"/>
    <g>
      <path d="M40.17,435.06c.33-.17.54-.09.78.26,1.09,1.47,3.08,1.67,4.98.72l11.48-5.71c2.09-1.04,3.06-2.17,1.81-4.1-.19-.38-.14-.64.14-.9.29-.26.55-.21.85.05l6.81,6.56c.35.36.66.74.85,1.12s.07.74-.31.92l-4.65,2.31c3.53-.04,7.18,1.22,8.93,4.74,1.61,3.23.63,6.5-2.48,8.34,3.51-.09,7.2,1.15,8.97,4.71,1.7,3.42.51,6.85-3.05,8.62l-12.91,6.42c-1.9.94-2.95,2.65-2.4,4.45.12.36.05.57-.29.73-.33.17-.62.07-.78-.26l-19-38.2c-.17-.33-.07-.62.26-.78ZM52.41,449.09l9.02-4.49c3.51-1.75,4.15-2.84,3.45-4.26-.68-1.38-2.41-2.47-4.38-2.85l-11.1,5.52c-2.18,1.09-3.23,3.03-2.29,4.93.92,1.85,3.12,2.23,5.31,1.15ZM58.91,462.14l9.02-4.48c3.51-1.75,4.15-2.84,3.45-4.26-.68-1.38-2.41-2.47-4.38-2.85l-11.1,5.52c-2.18,1.09-3.23,3.03-2.29,4.93.92,1.85,3.12,2.23,5.31,1.15Z"/>
      <path d="M85.28,483.15c4.61-6.99,11.17-8.56,18.61-3.66,7.43,4.9,8.61,11.59,4,18.58-4.61,6.99-11.25,8.58-18.68,3.67-7.43-4.9-8.54-11.6-3.92-18.59ZM100.71,493.34c3.44-5.22,4.06-9.13,1.27-10.97-2.79-1.84-6.1.29-9.54,5.51-3.47,5.26-4.13,9.15-1.34,10.99,2.79,1.84,6.14-.26,9.62-5.53Z"/>
      <path d="M124.9,516.52c.06-.37.24-.5.67-.48,1.83-.02,3.15-1.52,3.5-3.61l2.1-12.65c.38-2.3.03-3.75-2.26-3.87-.42-.07-.6-.26-.65-.64-.04-.38.15-.57.54-.66l9.3-1.68c.5-.08.98-.11,1.4-.04s.64.37.57.79l-.9,5.44c2.06-2.4,6.11-5.43,9.51-4.87.47.08.72.5.64,1.02l-1.53,7.59c-.19.83-.57.82-1.03.04-.59-.96-1.48-1.75-3.16-2.03-1.25-.21-3.3-.17-4.87.86l-1.99,11.97c-.35,2.09.37,3.93,2.15,4.55.36.11.49.3.43.66-.06.37-.3.54-.67.48l-13.28-2.21c-.37-.06-.54-.3-.48-.67Z"/>
      <path d="M165.63,516.35c-.89-7.58,11.17-8.95,12.51-13.85-.5-4.21-1.9-5.7-4.32-5.42-2.26.27-3.46,2.33-3.21,4.43.25,2.16.89,3.04,1.85,3.04.75.02.76,1.03.02,1.12-4.37.51-7.33-1.06-7.7-4.22-.4-3.37,2.29-6.83,9.35-7.67,6.58-.77,11.06,1.47,12.09,10.21l1.1,9.37c.25,2.11,1.45,3.67,3.33,3.77.38,0,.55.15.59.52.04.37-.14.6-.51.65l-9.16,1.08c-.89.11-1.42-.31-1.53-1.21l-.17-1.42c-1.75,2.34-4.5,3.89-7.39,4.29-3.84.45-6.45-1.32-6.85-4.69ZM179.62,514.54l-1.02-8.69c-2.28,2.88-5.66,4.51-5.21,8.35.22,1.9,1.19,2.85,2.81,2.6,1.26-.2,2.54-1.1,3.42-2.27Z"/>
      <path d="M212.81,510.35c-.17-.33-.1-.54.25-.79,1.45-1.12,1.61-3.11.63-4.99l-11.18-21.43c-1.08-2.07-2.21-2.97-4.13-1.73-.35.24-.64.15-.9-.13s-.22-.54.03-.85l6.43-6.94c.35-.36.72-.68,1.1-.87.38-.2.73-.08.93.29l14.63,28.06c.98,1.88,2.7,2.89,4.45,2.34.4-.15.62-.08.79.25.17.33.08.62-.25.79l-11.98,6.25c-.33.17-.62.08-.79-.25Z"/>
      <path d="M235.34,481.01c-6.5-5.28-7.43-11.96-2.49-18.05,4.64-5.72,10.52-6.07,16.67-1.36.66.53.76,1.16.19,1.86l-8.88,10.95c4.41,3.57,8.2,4.53,10.97,1.12,1.44-1.77,2.65-4.54-.05-9.11-.45-.71.45-1.48,1.13-.72l4.69,5.24c.64.72.63.99.48,1.34-.58,1.64-1.66,3.98-3.69,6.49-5.74,7.08-12.52,7.52-19.02,2.25ZM236.41,464.88c-1.6,1.98-.55,4.81,2.47,7.81l5.11-6.3c-3.71-3-6.11-3.32-7.58-1.51Z"/>
      <path d="M270.03,449.24c-.17.17-.31.4-.93.24l-7.69-1.92c-.67-.18-.55-.98,0-.96,4.79.45,8.14-2.53,9.42-6.18.97-2.75.13-4.05-.92-4.42-4.85-1.71-8.15,10.22-16,7.46-4-1.41-6.36-5.72-3.68-13.32,1.06-3,2.34-4.91,2.98-5.92.12-.18.27-.3.96-.17l7.3,1.28c.74.15.54,1.03-.05,1.11-4.65.61-6.84,1.86-7.77,4.51-.7,2-.28,3.5,1.22,4.03,4.7,1.65,7.9-10.31,16.7-7.21,4.7,1.65,5.83,5.93,3.23,13.33-1.5,4.25-3.25,7-4.78,8.15Z"/>
    </g>
    <g>
      <path d="M49.21,157.55c-7.47-1.55-4.95-13.43-9.18-16.26-4.15-.86-6.01,0-6.5,2.38-.46,2.23,1.11,4.02,3.19,4.45,2.13.44,3.17.12,3.47-.79.25-.71,1.22-.4,1.07.33-.9,4.31-3.33,6.62-6.44,5.97-3.32-.69-5.76-4.34-4.31-11.29,1.35-6.49,4.9-10.03,13.51-8.23l9.24,1.92c2.08.43,3.94-.21,4.63-1.96.13-.35.32-.48.68-.4.36.08.53.33.45.69l-1.88,9.03c-.18.88-.75,1.25-1.63,1.07l-1.4-.29c1.67,2.4,2.27,5.51,1.72,8.37-.79,3.79-3.3,5.7-6.62,5.01ZM51.92,143.72l-8.56-1.78c2.01,3.07,2.48,6.8,6.27,7.58,1.87.39,3.08-.23,3.36-1.85.21-1.26-.24-2.76-1.07-3.96Z"/>
      <path d="M63.01,122.49c-.33-.17-.4-.38-.25-.78.54-1.75-.49-3.46-2.38-4.43l-21.52-10.99c-2.08-1.06-3.52-1.14-4.37.98-.15.4-.43.49-.81.42-.38-.07-.5-.31-.47-.71l1.22-9.38c.08-.5.2-.97.39-1.35.19-.38.55-.49.93-.3l28.18,14.39c1.89.96,3.88.79,4.98-.67.24-.35.45-.42.78-.25.33.17.42.45.25.78l-6.15,12.04c-.17.33-.45.42-.78.25Z"/>
      <path d="M67.54,90.48c-5.73-6.11-5.73-12.86,0-18.23,5.38-5.04,11.25-4.58,16.7.92.58.62.6,1.26-.06,1.87l-10.29,9.64c3.88,4.14,7.5,5.61,10.72,2.6,1.66-1.56,3.25-4.13,1.19-9.04-.35-.76.65-1.4,1.22-.56l3.94,5.83c.54.81.49,1.07.29,1.4-.8,1.55-2.18,3.72-4.54,5.93-6.65,6.23-13.42,5.75-19.15-.36ZM70.79,74.65c-1.86,1.74-1.2,4.69,1.39,8.07l5.92-5.54c-3.26-3.48-5.6-4.12-7.3-2.53Z"/>
      <path d="M102.85,77.52c-.12-.35.08-.59.7-.91.8-.44,1.94-2.05,2.96-5.31l2.41-7.59-8.42-6.38c-1.8-1.35-3.67-2.9-5.39-2.54-.42.09-.62-.01-.74-.37-.12-.35.01-.62.37-.74l12.3-4.16c.35-.12.62.01.74.37.12.35.02.55-.37.74-1.61.88-.04,2.53,1.68,3.8l2.4,1.82.96-2.95c.79-2.45.2-4.04-1.88-3.73-.42.09-.62-.01-.74-.37-.12-.35.01-.62.37-.74l9.34-3.16c.35-.12.62.01.74.37s.02.55-.37.74c-1.44.71-2.32,2.24-3.39,5.51l-2.1,6.53,9.37,7.01c1.72,1.27,3.55,2.55,5.09,2.64.4.03.62.01.74.37.12.35-.01.62-.37.74l-12.3,4.16c-.35.12-.62-.01-.74-.37-.12-.35-.02-.55.37-.74,1.49-.73,1.3-1.78-.52-3.18l-4.22-3.22-1.31,4.08c-.79,2.45.52,3.85,2.88,3.39.42-.09.62.01.74.37s-.01.62-.37.74l-10.19,3.45c-.35.12-.62-.01-.74-.37Z"/>
      <path d="M141.31,62.99c-.17-7.63,11.96-7.85,13.77-12.61-.09-4.24-1.35-5.85-3.79-5.8-2.28.05-3.67,1.99-3.62,4.11.05,2.17.6,3.11,1.56,3.2.74.09.66,1.1-.08,1.12-4.4.1-7.2-1.75-7.27-4.93-.08-3.39,2.93-6.59,10.03-6.75,6.62-.15,10.87,2.51,11.07,11.31l.21,9.43c.05,2.12,1.09,3.79,2.95,4.07.37.04.54.2.54.57,0,.37-.2.59-.57.6l-9.22.21c-.9.02-1.39-.45-1.41-1.35l-.03-1.43c-1.97,2.17-4.85,3.45-7.77,3.57-3.87.09-6.3-1.93-6.38-5.32ZM155.41,62.51l-.2-8.74c-2.54,2.65-6.06,3.95-5.97,7.82.04,1.91.91,2.95,2.56,2.86,1.27-.08,2.63-.85,3.62-1.94Z"/>
      <path d="M178.91,67.09c1.82.2,3.31-1.12,3.91-3.16l3.62-12.3c.66-2.24.49-3.72-1.77-4.11-.81-.24-.8-1.23.05-1.31l9.44-.54c.5-.02.99.02,1.4.14.41.12.59.45.47.86l-1.51,5.13c2.49-2.64,6.28-4.45,10.25-3.28,3.86,1.14,5.44,4.42,4.35,8.13l-4.13,14.03.11-.19c-.6,2.03-.11,3.95,1.58,4.77.73.33.28,1.3-.38,1.1l-27.71-8.16c-.71-.21-.56-1.27.33-1.12ZM197.35,69.04l2.92-9.91c1.12-3.81.84-5.5-.93-6.02-1.47-.43-3.77.05-5.56,1.24l-3.47,11.8c-.69,2.34.02,4.43,2.46,5.15,2.14.63,3.76-.38,4.58-2.24Z"/>
      <path d="M224.15,72.12c5.83-6.45,12.89-6.92,17.5-2.77,2.32,2.1,3.16,4.57,3.17,6.93l4.16-4.6c1.56-1.73,2.02-3.1.18-4.48-.35-.24-.37-.54-.2-.89.17-.35.43-.4.81-.27l8.74,3.61c.46.2.89.44,1.2.73s.33.66.05.97l-21.21,23.48c-1.42,1.57-1.81,3.51-.65,4.99.24.29.25.51,0,.79-.25.28-.55.29-.82.04l-6.65-6c-.75-.67-.94-1.42-.37-2.04l1.17-1.3c-2.68.51-5.33-.03-7.85-2.3-4.52-4.09-4.89-10.63.75-16.89ZM234.91,87.26l4.3-4.76c3.37-3.74,3.44-6.89,1.43-8.7-2.36-2.13-5.74-.76-9.83,3.77-4.23,4.68-4.99,8.06-2.79,10.05,1.61,1.46,4.02,1.48,6.89-.35Z"/>
      <path d="M255.05,105.22c7.6-3.52,14.01-1.41,17.31,5.71,3.1,6.69.82,12.12-6.11,15.56-.77.36-1.38.17-1.76-.65l-5.93-12.79c-5.15,2.38-7.68,5.37-5.83,9.36.96,2.07,2.9,4.38,8.21,3.97.83-.09,1.13,1.05.15,1.33l-6.77,1.91c-.93.26-1.17.13-1.42-.16-1.22-1.25-2.84-3.24-4.2-6.17-3.83-8.27-1.25-14.55,6.35-18.07ZM269.07,113.27c-1.07-2.31-4.07-2.61-8.1-1.21l3.41,7.36c4.33-2,5.67-4.03,4.69-6.14Z"/>
      <path d="M256.93,143.79c.37-.07.55.06.68.47.63,1.72,2.49,2.46,4.58,2.08l12.62-2.29c2.29-.42,3.55-1.24,2.88-3.43-.08-.42.04-.65.39-.83.35-.17.58-.05.81.28l4.72,8.19c.24.44.43.89.51,1.31.08.42-.14.73-.55.8l-5.42.99c2.95,1.13,7.18,3.92,7.79,7.31.08.47-.22.85-.74.94l-7.66,1.12c-.84.1-.96-.26-.39-.95.7-.88,1.15-1.99.84-3.65-.23-1.25-.95-3.17-2.45-4.29l-11.94,2.17c-2.09.38-3.57,1.67-3.56,3.55.01.37-.11.56-.48.63-.37.07-.61-.1-.68-.47l-2.41-13.24c-.07-.37.1-.61.47-.68Z"/>
    </g>
    <path d="M257.67,230.08c1.09,0,2.6-.5,2.83-1.74s-1.05-1.92-2.08-1.92c-1.09,0-2.6.5-2.83,1.74s1.05,1.92,2.08,1.92h0Z"/>
    <path d="M51.99,297.83c-1.15,16.48-.55,33.05,2.16,49.35s7.16,31.19,13.09,46.03c3.13,7.83,6.64,15.5,10.43,23.03,3.54,7.03,7.15,14.15,11.87,20.47,4.35,5.82,10.15,11.56,17.26,13.75,6.77,2.08,15.81.86,17.75-7.09,1.71-7.01-2.2-14.56-5.21-20.64-3.83-7.75-8.36-15.13-12.28-22.83-7.1-13.96-12.67-31.56-5.35-46.6,1.56-3.21,4-6.75,7.52-8.01,2.91-1.04,5.52,2.46,6.9,4.53,2.39,3.58,4.36,7.5,6.41,11.28,2.16,3.99,4.26,8.02,6.3,12.08s3.85,7.98,5.81,11.96c1.71,3.47,3.64,6.91,6.44,9.63,3.04,2.96,6.95,4.74,11.26,3.92,3.65-.69,6.43-3.4,7.42-6.95,1.2-4.33-.19-8.91-1.18-13.14-1.05-4.48-2.15-8.95-3.24-13.42-2.22-9.09-4.41-18.19-6.02-27.41-1.51-8.63-2.54-17.4-3.02-26.15-.43-7.91-.14-15.9,1.81-23.62,1.01-3.99,2.48-7.85,4.28-11.56.67-1.39-4.18-1.74-4.84-.4-3.48,7.19-5.54,14.92-6.18,22.88s.02,16,.88,23.94c.97,8.99,2.44,17.86,4.38,26.69,1.95,8.91,4.23,17.75,6.35,26.62,1.01,4.24,2.5,8.76,2.22,13.17-.12,1.88-.66,3.65-1.76,5.19-.65.91-1.89,2.32-3.13,2.22-1.67-.14-3.42-1.74-4.55-2.85-1.35-1.33-2.5-2.85-3.52-4.45-2.17-3.41-3.77-7.15-5.52-10.78-3.91-8.11-8.07-16.1-12.48-23.95-1.79-3.18-3.47-6.62-6.23-9.09-2.94-2.63-7.17-3.25-10.91-2.22-7.42,2.03-11.21,9.98-12.79,16.88-1.77,7.71-.95,15.83,1.14,23.39,4.44,16.15,14.86,29.65,21.48,44.86,2.32,5.33,5.34,13.76.63,18.73-4.99,5.26-13.2-.93-17.18-4.54-5.55-5.03-9.56-11.57-13.12-18.08-3.94-7.2-7.58-14.58-10.93-22.07-6.5-14.53-11.75-29.63-15.17-45.18-3.42-15.59-4.97-31.55-4.7-47.5.07-4.09.25-8.18.54-12.26.1-1.38-4.89-1.41-5,.17h0Z"/>
    <path d="M230.48,227.51c-2.8-17.87-6.67-35.9-14.43-52.35-6.24-13.23-16.84-23.82-30.68-28.86-14.74-5.37-30.96-5.42-46.18-2.21-15.39,3.24-30.17,9.86-42.86,19.16-12.23,8.97-22.43,21.51-25.91,36.52-.44,1.9-.75,3.82-.96,5.75-.12,1.13.54,2.39,1.29,3.19.42.45,1.59,1.24,1.72.09,1.62-14.95,10.43-28.05,21.71-37.6,11.44-9.68,25.42-16.69,39.78-20.83,14.55-4.2,30.21-5.4,45.05-1.97,6.86,1.59,13.55,4.22,19.32,8.32,5.3,3.76,9.76,8.62,13.07,14.21,4.1,6.93,6.86,14.72,9.16,22.4,2.51,8.37,4.38,16.93,5.88,25.54.36,2.07.7,4.15,1.03,6.23.18,1.13.73,2.41,1.68,3.11.72.53,1.5.32,1.34-.72h0Z"/>
    <path d="M146.17,291.83c3.57-11.6,8.16-23.14,15.49-32.92,3.44-4.59,7.6-8.76,12.45-11.84,1.9-1.21,3.36-2.02,5.58-2.39,1.6-.27,3.6-.1,5.33.39,3.88,1.1,7.23,3.89,9.91,6.81,3.19,3.47,5.79,7.46,8.08,11.57s4.08,8.01,5.74,12.18c.66,1.65,1.29,3.32,1.86,5,.69,2.03,1.12,4.13,1.87,6.14.8,2.14,2.03,4.41,4.26,5.3,2.81,1.12,6.13-.07,8.35-1.91,4.05-3.37,4.64-9.12,5.21-14,.13-1.11-1.82-.66-2.3-.46-.98.41-2.06,1.21-2.19,2.34-.24,2.09-.49,4.18-1.03,6.22-.26.99-.57,1.99-1.04,2.91s-.88,1.47-1.42,1.86c.39-.28-.37,0,.08-.07-.77.11.41-.02-.39.12-.33.06-.75.07-1.13,0-.96-.16-1.78-.8-2.36-1.55-1.33-1.69-1.99-3.86-2.56-5.9-2.31-8.13-5.75-16.03-10.12-23.27s-10.32-15.16-18.9-16.88c-4.61-.92-9.23.45-13.19,2.82-5.3,3.17-9.97,7.36-13.89,12.12-8.72,10.58-14.05,23.52-18.05,36.51-.33,1.08.9,1.23,1.66,1.04,1.02-.25,2.37-1.06,2.71-2.14h0Z"/>
    <path d="M40.6,362.33c4.91-4.54,10.06-8.82,15.41-12.82.9-.68-.13-1.44-.82-1.67-1-.34-2.54-.41-3.44.27-5.36,4.01-10.5,8.29-15.41,12.82-.8.74.05,1.41.82,1.67.91.31,2.64.47,3.44-.27h0Z"/>
    <path d="M5.24,406.89c7.87-13.41,17.35-25.83,28.19-36.98,1.09-1.12-2.97-3.93-4.29-2.57-10.84,11.15-20.32,23.57-28.19,36.98-.9,1.53,3.39,4.1,4.29,2.57h0Z"/>
    <path d="M5.85,419.87c2.82-9.69,9.18-17.75,15.74-25.22,6.85-7.8,14.11-15.28,22.08-21.93,4.51-3.76,9.25-7.23,14.24-10.32,1.1-.68.72-2.37-.01-3.14-.92-.97-2.27-1.15-3.38-.46-9.06,5.61-17.25,12.49-24.81,19.98-3.85,3.81-7.54,7.78-11.13,11.82-3.4,3.83-6.74,7.74-9.66,11.96-3.31,4.78-6.07,9.99-7.7,15.6-.76,2.6,3.83,4.52,4.64,1.72h0Z"/>
    <path d="M210.45,156.57c9.28-6.57,21.45-3.78,29.38,3.58,4.55,4.22,7.6,10.06,9.83,15.77,2.37,6.09,3.64,12.61,4.2,19.1.63,7.32.47,14.68.22,22.01-.04,1.22.93,2.51,2.1,2.85s2.12-.41,2.16-1.59c.5-14.24.47-28.73-4.49-42.28-2.42-6.62-5.96-13.22-10.97-18.25-4.28-4.29-9.86-7.57-15.8-8.89-6.83-1.52-13.84-.4-19.59,3.67-2.05,1.45.9,5.49,2.97,4.02h0Z"/>
    <path d="M223.9,170.7c6.69-.99,10.89,5.28,12.85,10.84,1.49,4.23,2.17,8.8,2.84,13.22.76,5.05,1.27,10.13,1.63,15.22.4,5.71.62,11.43.81,17.15.05,1.47,5.04,1.53,5,.16-.36-11.13-.85-22.29-2.58-33.31-1.21-7.72-2.56-17.33-9.31-22.38-3.93-2.94-8.98-3.41-13.7-2.71-.72.11-1.68.63-.94,1.34s2.47.61,3.41.47h0Z"/>
    <path d="M244.61,269.95c-.1,14.99-.81,29.97-2.42,44.87-.8,7.36-1.81,14.7-3.03,22-.59,3.52-.96,7.26-2.06,10.66-.93,2.89-2.23,5.69-3.95,8.2s-3.69,4.57-6.01,6.35-5.06,3.09-7.8,4.25c-5.17,2.19-10.69,4.05-14.97,7.84-4.11,3.64-6.7,8.88-6.41,14.43.27,5.24,2.9,9.99,7.16,13.05,5.55,3.98,13.06,5.61,19.66,3.67,5.94-1.75,10.71-6.21,13.49-11.67.47-.92-4.16-2.57-4.85-1.23-4.55,8.94-16.15,15.63-25.1,8.45-3.84-3.09-5.82-8.13-5.5-13,.35-5.35,3.28-10,7.51-13.18,4.38-3.3,9.7-4.89,14.64-7.12,5.19-2.34,9.55-5.55,12.8-10.28,1.58-2.3,2.85-4.79,3.79-7.41,1.18-3.3,1.6-6.89,2.19-10.34,1.17-6.85,2.16-13.73,2.96-20.63,1.83-15.82,2.63-31.74,2.73-47.66.01-1.5-4.84-2.25-4.85-1.23h0Z"/>
    <path d="M245.48,238.83c-5.4-6.77-14.04-10.68-22.55-7.62-.83.3-1.98.64-2.61,1.3-.77.81-.49,1.96-.26,2.94.57,2.49,1.68,4.85,3.09,6.98,2.74,4.12,6.63,7.02,11.27,8.68,2.68.96,5.62,1.62,8.43.78,2.33-.7,4.1-2.41,5.13-4.58.53-1.11-2.56-4.68-2.97-3.82-1.74,3.67-5.61,5.03-9.45,4.34s-7.87-2.43-10.44-5.3c-.97-1.08-1.59-2.33-1.99-3.72-.26-.92-.56-1.76.31-2.41.64-.47,1.5-.74,2.24-1.01,3.2-1.15,6.68-1.31,9.98-.51,3.63.87,7.02,2.91,9.36,5.84.27.34,1.28,1.66,1.72.96.4-.64-.93-2.45-1.25-2.85h0Z"/>
    <path d="M251.18,237.44c.99-3.02,3.08-5.63,5.67-7.44,1.49-1.04,3.14-1.83,4.84-2.46.81-.3,1.62-.56,2.45-.79.44-.13.89-.25,1.33-.36.36-.1,1.26-.15,1.52-.37l.19-.03-.71-.96s-.07-.59.05.14c.07.44.34.93.49,1.35.32.91.64,1.82.89,2.75.45,1.66.72,3.4.61,5.12-.23,3.49-1.95,6.31-5.12,7.84-3.78,1.83-8.21,2.29-12.34,1.77-1.45-.18.04,4.4,1.57,4.59,4.28.53,9.01.04,12.93-1.86s5.65-5.55,5.84-9.74c.1-2.27-.28-4.53-.88-6.72s-1.25-4.44-2.26-6.44c-.48-.93-1.23-2.11-2.32-2.39-.92-.24-2.11.28-2.99.51-2.11.57-4.2,1.25-6.15,2.26-4,2.08-7.02,5.48-8.43,9.78-.33,1.01.51,2.51,1.13,3.25.5.59,1.36,1.21,1.7.18h0Z"/>
    <path d="M244.37,257.15c1.59,7.12,8.14,11.53,15.31,10.73,3.9-.44,7.59-2.39,10.69-4.72,1.5-1.13,3.52-2.52,2.93-4.68-.47-1.74-2.13-3.44-3.26-4.79-2.7-3.24-6.01-5.94-9.74-7.9-1.1-.58-2.67-.27-3.47.69s-.52,2.21.55,2.78c3.29,1.73,6.15,4.12,8.56,6.95.58.69,1.13,1.41,1.65,2.15.08.11.8,1.31.86,1.3l.22-.57c.17-.07.08.01-.28.26-.83.47-1.56,1.24-2.36,1.78s-1.62,1.03-2.49,1.45c-2.77,1.34-5.95,2.01-8.82.64s-4.75-3.98-5.44-7.03c-.58-2.58-5.48-1.61-4.9.97h0Z"/>
    <path d="M252.63,242.85l2.85-1.54c.42-.23.64-.67.65-1.14,0-.28-.06-.53-.18-.78-.1-.29-.25-.55-.45-.78-.42-.49-.95-.94-1.57-1.12-.49-.15-1.05-.24-1.52.01l-2.85,1.54c-.42.23-.64.67-.65,1.14,0,.28.06.53.18.78.1.29.25.55.45.78.42.49.95.94,1.57,1.12.49.15,1.05.24,1.52-.01h0Z"/>
    <path d="M248.92,253.24c1.03,0,2.22-.85,1.97-1.97-.28-1.25-1.89-1.55-2.93-1.55s-2.22.85-1.97,1.97c.28,1.25,1.89,1.55,2.93,1.55h0Z"/>
    <path d="M245.1,244.58c.33,0-1.33-.96-1.46-1.02-.81-.39-1.95-1.08-2.89-1.08-.33,0,1.33.96,1.46,1.02.81.39,1.95,1.08,2.89,1.08h0Z"/>
    <path d="M226.29,252.74c-2.42,2.69-3.93,5.95-4.56,9.5-.3,1.71-.37,3.47-.16,5.2.09.75.13,1.8.69,2.36.69.7,1.88.45,2.76.4,4.23-.26,8.64-.64,12.48-2.58,3.38-1.71,5.99-4.39,7.73-7.74s2.46-7.31,1.92-11.05c-.24-1.68-4.63.53-4.41,2.03.69,4.77-.71,10.99-4.7,13.9.22-.16-.38.24-.46.29-.3.17-.61.32-.92.45-.66.27-1.36.48-2.06.64-1.69.4-3.45.58-5.18.72-.87.07-1.75.15-2.63.18-.38.01-.35.08-.56-.2-.18-.26-.18-.79-.22-1.1-.2-1.45-.21-2.93-.05-4.38.33-2.97,1.44-6.06,3.46-8.3.48-.54,1.06-1.58-.03-1.76-1.04-.17-2.47.73-3.12,1.46h0Z"/>
    <path d="M156.66,288.72c14.12-7.74,28.43-15.13,42.92-22.16,1.26-.61-2.18-4.05-3.38-3.47-14.49,7.03-28.8,14.41-42.92,22.16-1.27.7,2.24,4.1,3.38,3.47h0Z"/>
    <path d="M152.32,300.57c6.74-4.46,13.68-9.07,21.58-11.17,1.93-.51,3.92-.84,5.91-.97,1.77-.12,3.53.13,5.24-.45,1.45-.49,3.93-1.81,3.89-3.63-.02-.9-.82-1.41-1.45-1.92-.99-.79-1.98-1.58-2.97-2.37l-.82,2.02c4.8-3.32,10.01-5.99,15.45-8.1.73-.28,2.33-1.27,2.25-2.22-.08-1.03-1.67-.41-2.17-.22-6.28,2.43-12.19,5.64-17.73,9.47-.54.37-1.58,1.41-.82,2.02.81.64,1.61,1.28,2.42,1.92.4.32.85.85,1.28,1.09l.15.31c1.62-.86,2.09-1.24,1.4-1.15-.5-.2-1.57.02-2.14.03-.85.02-1.71.06-2.56.15-3.64.35-7.21,1.32-10.62,2.62-6.93,2.65-13.21,6.66-19.37,10.74-.52.34-2.09,1.38-1.59,2.2s2.23-.07,2.69-.38h0Z"/>
    <path d="M277.86,304.95c-.59-3.75-2.46-7.21-5.27-9.77-1.3-1.19-2.8-2.18-4.4-2.91-1.09-.49-1.95-.63-3.1-.18s-2.38,1.13-3.16,2.06c-1.06,1.26-.77,3.28-.49,4.79.32,1.74,1.01,3.41,1.97,4.9,1.96,3.04,5.07,5.3,8.61,6.08.9.2,2.18-.68,2.88-1.15.22-.15,1.82-1.28,1.14-1.52-3.97-1.44-8.27-1.73-12.4-.87-2.25.47-4.38,1.23-6.33,2.46-1.4.89-3.01,2.05-3.63,3.66-1.5,3.93,4.15,4.49,6.61,4.36,4.27-.23,8.43-1.97,11.89-4.4l-3.05.87c-.41,2.87-.76,5.9-.07,8.75.32,1.33.9,2.59,1.8,3.62,1.11,1.27,2.26,1.58,3.84.98,3.35-1.27,5.1-3.7,5.43-7.2.3-3.15-.48-6.28-2.23-8.91l-4.19,2.57c5.1,1.17,10.72-.51,14.77-3.73.7-.55,1.82-1.49,1.58-2.52s-1.67-1.42-2.5-1.68c-2.61-.81-5.28-.45-7.81.44l1.34.03c1.74-4.42,1.71-10.19-.93-14.29-1.5-2.33-5.22.65-6.45,2.01-1.67,1.85-2.61,4.18-2.62,6.67,0,.74,1.6-.07,1.89-.21.51-.24,2.46-1.14,2.46-1.89,0-1.79.44-3.57,1.44-5.07.15-.22.31-.44.48-.65.85-.93.22-.53-1.87,1.18.09.29.46.67.6.95.42.79.76,1.62,1.03,2.47,1.15,3.59.98,7.43-.39,10.93-.24.6,1.29.05,1.34.03,1.46-.52,3.14-.49,4.64-.16.74.16,3.78,1.03,2.92,2.15-.18.24-.81.37-1.07.45-.76.25-1.55.4-2.34.49-1.51.17-3,.04-4.49-.3-.68-.16-4.72,1.76-4.19,2.57,1.33,2.01,2.13,4.32,2.26,6.73.07,1.26-.07,2.55-.38,3.77-.14.53-.29,1.07-.55,1.56-.35.63-.82.74.82-.16s1.04-.37.18-1.04c-3.67-2.85-2.96-8.69-2.4-12.68.13-.9-2.81.7-3.05.87-2.09,1.47-4.59,2.05-7.13,2.11-1.97.05-5.79-.38-5.45-3.21.07-.55.37-.93.65-1.38.05-.08.15-.15.22-.21-.32.25-.13.07.15,0,1.39-.29,2.7-.66,4.12-.77,3.06-.25,6.12.23,9,1.28l4.03-2.67c-3.28-.73-6.08-2.7-8-5.45-.91-1.31-1.61-2.77-2.03-4.31-.22-.79-.36-1.61-.42-2.43-.03-.41-.04-.82-.01-1.23.08-1.11.66-1.04-1.03-.12l-2.03.8c1.33-.2,3.29,1.25,4.3,1.99,1.18.86,2.24,1.88,3.16,3.01,1.85,2.28,3.06,5.01,3.52,7.91.06.37,4.55-1.19,4.34-2.48h0Z"/>
    <path d="M168.16,323.92c1.96,1.07,3.7,2.48,5.17,4.15l-.1-.11c.86.99,1.61,2.06,2.25,3.21.12.22.56.24.76.26.58.06,1.2.03,1.77-.03s1.19-.12,1.75-.3c.1-.03.79-.22.7-.39-1.74-3.13-4.37-5.76-7.52-7.48-.31-.17-.84-.16-1.17-.17-.63-.01-1.3.03-1.92.13-.49.08-1.02.14-1.47.35-.12.06-.49.23-.22.38h0Z"/>
    <path d="M176.62,322.39c2.16,1.53,4,3.48,5.4,5.72l-.1-.17c.34.55.66,1.12.95,1.7.14.29.48.35.77.4.56.1,1.21.09,1.78.03s1.2-.13,1.74-.35c.14-.06.8-.3.69-.53-1.5-3.02-3.71-5.64-6.46-7.59-.32-.22-.82-.26-1.18-.29-.63-.04-1.31,0-1.92.11-.48.09-1.05.16-1.46.44-.16.11-.48.33-.2.53h0Z"/>
    <path d="M174.1,338.05c-6.02,2.26-10.23,8.22-10.06,14.7.02.83,3.77.48,4.27.36,5.36-1.29,10.35-3.68,14.63-7.17l-4.91-.13c-1.03,2.74-1.02,5.75-.04,8.51.89,2.52,2.82,5.51,5.42,6.53,1.64.65,4.14.73,5.79.04,1.2-.5,1.7-1.8,1.91-3,.67-3.83.11-7.89-1.18-11.53l-4.91.15c3.88,2.6,8.42,3.76,13.07,3.84,1.76.03,4.06.04,5.59-1.02,1.75-1.21.92-3.58.01-5.07-2.01-3.33-5.91-5.15-9.52-6.19-4.8-1.39-9.99-1.63-14.92-.83-.52.08-1.62.17-.9.71.67.5,2.66.3,3.42.18,5.51-.89,12.41.74,16.16,5.13.89,1.04,1.67,2.42,1.77,3.82.05.68-.09,1.34-.62,1.81-.26.23-.52.3-.82.45-.16.08.56.05.06-.02-3.11-.47-5.84-1.32-8.49-3.09-.52-.35-5.12-.44-4.91.15,1.03,2.91,1.53,5.98,1.41,9.07-.05,1.26-.09,2.7-.63,3.86-.16.35-.39.57-.6.87l-.23.18,2.6-.19c-.26-.42-1.14-.85-1.52-1.22-3.47-3.33-4.6-8.69-2.92-13.17.19-.51-4.36-.57-4.91-.13-3.9,3.19-8.44,5.53-13.34,6.71l4.27.36c-.16-6.09,3.63-12.02,9.38-14.17.98-.37-.63-.67-.9-.71-1.06-.13-2.4-.19-3.42.19h0Z"/>
    <path d="M200.07,302.73c-2.55-2.7-5.72-4.69-9.32-5.64-2.41-.64-8.19-1.8-8.06,2.15.11,3.69,3.49,7.19,6.4,9.07,2.9,1.87,6.4,2.68,9.81,2.06l-2.42-4.28c-3.15.63-5.15,3.55-5.5,6.62-.21,1.9.16,3.82.78,5.61s1.6,4.02,3.17,5.26c2.54,2.01,6.32-1.32,7.61-3.45,1.88-3.08,1.32-6.92-.28-9.98l-.64,1.71c2.53,2.28,5.48,4.15,8.69,5.29,2.15.77,5.27,1.32,6.8-.88,1.86-2.7-.77-6.65-2.56-8.64-2.18-2.43-5.26-4.16-8.33-5.18l2.26,3.98c.96-2.62,1.31-5.44.95-8.22-.33-2.49-1.61-5.46-3.86-6.79s-4.53.71-5.98,2.3c-1.67,1.83-2.82,4.05-3.33,6.48-.21,1,.54,2.17,1.13,2.92.16.21,1.64,1.8,1.83.91.69-3.29,2.62-6.48,5.57-8.21.41-.24.89-.5,1.37-.53.25-.02.48.01.71.1l-.59-.82c.1-.02.25,2.17.25,2.23.05,2-.32,3.92-1.01,5.79-.41,1.11,1.19,3.62,2.26,3.98,2.21.74,4.39,1.79,6.17,3.32.5.43.78.65.71,1.32-.1,1.02-.88,1.76-1.8,2.09-1.91.68-4.15-.2-5.88-.99-2.29-1.04-4.34-2.42-6.2-4.1-.32-.29-.78-.52-1.06-.09s.23,1.45.42,1.8c1.03,1.98.57,4.55-.56,6.38-.58.94-1.39,1.74-2.3,2.36-.44.3-.92.56-1.41.77-.23.1-1.78.43-1.79.44.09-.17,1.18,2.12.72.84-.08-.22-.2-.43-.28-.65-.22-.58-.39-1.19-.48-1.8-.19-1.25-.09-2.55.34-3.74.78-2.13,2.52-3.74,4.76-4.2.8-.16-1.19-4.5-2.42-4.28-2.5.45-5.1.19-7.42-.88-1.07-.49-2.09-1.12-2.95-1.94-.15-.14-.28-.29-.42-.43-.39-.38-.22-.39-.12-.05-.11-.38-.13-.78.08-1.13.62-1.07,2.54-.82,3.58-.76,1.3.07,2.59.29,3.84.66,2.59.76,4.99,2.18,6.84,4.14.43.46,1.36,1.15,1.48.13s-.93-2.39-1.56-3.06h0Z"/>
    <path d="M179.46,319.89c5.19-1.7,10.47-3.06,15.83-4.1,1.13-.22.73-1.44.2-2.06-.71-.83-2.04-1.58-3.18-1.36-5.36,1.03-10.64,2.4-15.83,4.1-2.3.75,1.34,3.95,2.98,3.42h0Z"/>
    <path d="M154.77,315.82l32.14-6.8c3.16-.67,1.84-5.08-1.07-4.47-10.71,2.27-21.42,4.53-32.14,6.8-3.16.67-1.84,5.08,1.07,4.47h0Z"/>
    <path d="M213.94,303.93c8.16-.53,16.34-.59,24.51-.2,1.21.06,1.24-1.73,1-2.5-.35-1.13-1.24-2.13-2.46-2.18-8.17-.4-16.35-.33-24.51.2-2.4.15-.68,4.82,1.46,4.68h0Z"/>
    <path d="M224.41,312.18c5.8-1.03,11.73-1.29,17.59-.71,1.01.1-.14-.86-.41-1.07-.78-.61-2-1.49-3.04-1.59-6.06-.6-12.15-.4-18.15.66-.66.12,1.06,1.37,1.17,1.44.65.44,1.96,1.41,2.83,1.26h0Z"/>
    <path d="M33.05,366.06l.24-7.02c0-.06.06-.46,0-.2s0-.05.02-.11c.01-.09.05-.19.05-.28.01-.17-.2.25.01.02-.03.03-.22.28-.29.22.02.01.28-.1.31-.11.27-.09.54-.16.81-.23,1.09-.31,2.18-.62,3.27-.93l-3.63-2.34c.38,1.93.57,3.89.57,5.85,0,.53.44,1.17.8,1.52.43.42,1.11.81,1.72.89,1.16.15,2.11-.38,2.11-1.62,0-1.97-.19-3.92-.57-5.85-.31-1.59-2.02-2.8-3.63-2.34-1.18.34-2.37.67-3.55,1.01-.78.22-1.5.47-2.03,1.12-.36.44-.52,1.02-.56,1.57-.18,2.67-.19,5.37-.28,8.05-.02.52.46,1.18.8,1.52.43.42,1.11.81,1.72.89.51.06,1.14.06,1.56-.3s.53-.77.55-1.32h0Z"/>
    <path d="M168.87,320.73c-6.42-3.2-14.48-2.78-20.35,1.44-1.04.75-1.11,2.1-.38,3.11.66.91,2.25,1.64,3.29.89,2.28-1.63,4.99-2.71,7.73-2.93s5.61.24,8.04,1.45c1.05.52,2.52.36,3.02-.83s-.29-2.59-1.36-3.13h0Z"/>
    <path d="M259.23,276.91c.13,3.06.25,6.13.38,9.19.04.95,1.79,1.14,2.47,1.15.59,0,1.23-.02,1.78-.26.29-.13.77-.35.76-.74-.13-3.06-.25-6.13-.38-9.19-.04-.95-1.79-1.14-2.47-1.15-.59,0-1.23.02-1.78.26-.29.13-.77.35-.76.74h0Z"/>
    <path d="M226.17,404.79c18.59-14.47,27.72-37.21,31.14-59.93,1.08-7.19,1.67-14.45,2-21.71.06-1.28-1.54-1.84-2.57-1.67-1.28.21-2.25,1.19-2.31,2.48-1.04,22.67-4.94,46.56-18.87,65.18-3.49,4.66-7.52,8.91-12.11,12.49-.9.7-1.52,1.99-.67,2.99.8.94,2.46.89,3.39.17h0Z"/>
    <path d="M284.55,290.12c3.69-5.33,8.76-9.48,14.73-12.02l-4.06-2.1c3.27,7.01.74,16.17-5.54,20.62-1.17.83,3.02,2.77,3.67,2.78,2.01.04,3.47.77,4.96,2.06.89.77,1.7,1.62,2.48,2.5.59.66,2.24,2.06,2.18,2.98-.07.97-1.63,1.83-2.36,2.26-1,.6-2.09,1.05-3.21,1.35-2.05.55-4.51.68-6.51-.15-.35-.15-2.51-.95-1.87.26,1.34,2.53,2.36,5.21,3,8,.37,1.61,1.41,5.42-.99,6.06-1.65.44-3.94-1.02-5.15-2.01-1.75-1.44-3.1-3.37-3.98-5.45-.4-.95-1.5-1.58-2.4-1.99-.18-.08-2.32-.8-1.99-.03,2.54,6.02,8.34,10.6,14.68,12.1,1.39.33,3.1.52,4.1-.73.83-1.04.72-2.69.54-3.92-.56-3.7-1.9-7.29-3.65-10.59l-1.87.26c3.12,1.29,6.41,1.81,9.73,1.02,2.03-.49,7.71-2.63,5.99-5.49-.84-1.4-2.14-2.68-3.25-3.87-1.19-1.27-2.47-2.46-3.86-3.51-2.86-2.17-6.27-3.86-9.92-3.94l3.67,2.78c6.88-4.88,9.25-14.31,5.7-21.92-.44-.94-2.98-2.56-4.06-2.1-6.08,2.58-11.33,6.86-15.09,12.29-.58.83,3.65,3.49,4.35,2.47h0Z"/>
    <g>
      <path d="M300.37,213.48c4.54-.5,10.48-.81,12.65,4.19.8,1.85.84,3.94.62,5.91-.14,1.3-.37,2.58-.58,3.87-.1.64-.21,1.29-.29,1.93-.03.27-.06.54-.09.81-.02.16-.03.32-.04.49-.08.54.01.45.29-.28l.57-.32c-.84.23-2.18-.36-2.98-.64-1.02-.36-2-.82-2.91-1.4-1.84-1.16-3.46-2.7-4.64-4.54-1.95-3.06-2.76-6.91-1.92-10.47.14-.61.27-1.77-.51-2.02-.75-.23-1.37.88-1.5,1.44-.92,3.89-.65,7.92.94,11.61s4.87,6.88,8.7,8.5c.94.4,1.92.7,2.92.91,1.21.25,2.12.13,2.75-1.08.54-1.04.5-2.23.65-3.36s.36-2.36.55-3.54c.62-3.89.97-8.45-1.41-11.87-3.05-4.38-8.63-4.13-13.34-3.61-1.35.15-1.99,3.65-.42,3.48h0Z"/>
      <path d="M298.64,226.57c-.87,2.3-2.39,4.32-4.31,5.85-1,.8-2.13,1.47-3.31,1.98-.52.23-1.05.41-1.6.57-.4.11-1.42.53-1.82.3-.72-.4-.57-2.38-.52-3.05.11-1.41.41-2.81.7-4.19.61-2.91,1.47-5.94,3.28-8.35,1.66-2.21,4.06-3.76,6.84-4,1.62-.14,1.7-3.69-.17-3.53-7.55.65-11,8.59-12.4,15-.68,3.14-1.77,7.4.03,10.36,1.05,1.72,2.82,1.41,4.48.9,1.51-.46,2.96-1.14,4.28-2,3.12-2.05,5.5-5.05,6.82-8.54.28-.73.19-1.9-.57-2.32s-1.5.33-1.75,1.01h0Z"/>
      <path d="M312.13,208.95c1.48-2.43,2.48-5.1,2.92-7.92.18-1.14.5-2.61,0-3.71-.66-1.43-2.32-1.35-3.62-1.07-5.03,1.05-10.03,3.44-12.89,7.89-1.53,2.38-2.38,5.25-2.04,8.09.23,1.95,3.71,1.26,3.51-.48-.59-4.97,2.71-9.21,7.06-11.22,1.14-.53,2.34-.94,3.56-1.25.12-.03,1.65-.33,1.65-.34-.4-.3-.57-.35-.51-.15.02.09.03.18.02.27-.09.3-.03.71-.06,1.03-.25,2.79-1.19,5.5-2.64,7.89-1.17,1.92,2.12,2.5,3.05.98h0Z"/>
      <path d="M300.28,203.22c-.74-2.92-2.68-5.24-5.28-6.76-1.52-.89-3.18-1.52-4.88-1.97-1.47-.39-3.04-.76-4.54-.28-3.59,1.17-2.53,5.34-1.65,8.04.96,2.94,2.57,5.8,4.74,8.02,2.43,2.49,6.1,4.65,9.59,3.09.72-.32,1.06-1.25.51-1.87-.62-.69-1.71-.64-2.49-.3-.87.39-2.32-.65-2.96-1.09-1.22-.84-2.24-1.95-3.12-3.13-1.65-2.23-2.83-4.92-3.38-7.63-.14-.68-.33-1.48-.15-2.17.05-.22.11-.43.3-.57-.21.17-.12,0,.15.06,1.4.26,2.76.61,4.08,1.17,2.46,1.02,4.82,2.97,5.51,5.66.22.87,1.02,1.27,1.89,1.2.63-.05,1.91-.6,1.69-1.47h0Z"/>
      <path d="M286.18,206.48c-4.33,1.16-8.12,3.6-9.88,7.88-.45,1.09-.74,2.29-.78,3.48-.02.54,0,1.16.4,1.57.36.36.86.43,1.33.51,2.02.37,4.09.53,6.15.48,2.34-.06,4.67-.42,6.93-1.04.75-.21,1.15-1.19,1.31-1.87.08-.34.22-1.73-.52-1.53-4.19,1.16-8.87,1.5-13.13.49-.06-.01-.51-.19-.51-.19.01.36.02.39.03.07.01-.14.03-.29.05-.43.05-.3.2-.72.29-.92.39-.87,1.02-1.61,1.73-2.25,1.62-1.46,3.74-2.29,5.82-2.85.75-.2,1.15-1.19,1.31-1.87.08-.34.22-1.73-.52-1.53h0Z"/>
    </g>
    <path d="M281.21,230.47c-2.15.72-4.21,1.63-6.15,2.74-.47.27-1.44.15-1.81-.43-.41-.65,0-1.16.48-1.44,1.94-1.1,4-2.02,6.15-2.74.53-.18,1.4-.22,1.81.43.37.58.07,1.25-.48,1.44h0Z"/>
    <path d="M283.35,224.22c-4,.77-7.78,2.11-11.25,3.99-.53.29-1.01-.69-1.1-1.09-.13-.66.02-1.31.56-1.6,3.47-1.88,7.26-3.22,11.25-3.99,1.22-.24,1.58,2.49.53,2.69h0Z"/>
    <path d="M77.39,272.39c-3.04-1.41-6.05-2.9-9.01-4.46-.94-.5-3.4-.83-3.87.49-.97,2.73-2.56,5.19-4.59,7.27-.76.77,1.02,1.59,1.52,1.72.97.26,2.39.4,3.16-.39,2.19-2.24,3.81-4.93,4.86-7.88l-3.87.49c2.97,1.56,5.97,3.05,9.01,4.46.96.45,2.51.67,3.45.06s.02-1.45-.65-1.76h0Z"/>
    <path d="M64.12,263.99l5.64-1.28c.47-.11.96-.39,1.15-.85s.07-1.03-.19-1.42c-.67-1-2.06-1.65-3.26-1.37l-5.64,1.28c-.47.11-.96.39-1.15.85s-.07,1.03.19,1.42c.67,1,2.06,1.65,3.26,1.37h0Z"/>
    <path d="M81.71,250.13c.75,2.35,1.89,4.56,3.29,6.6.32.47,1.03.78,1.57.86.6.09,1.39-.02,1.9-.37.48-.32.94-.77,1.04-1.36s-.03-1.11-.38-1.62c-.29-.42-.56-.84-.82-1.28l.29.49c-.9-1.52-1.63-3.14-2.18-4.83-.17-.52-.76-.98-1.25-1.18-.57-.23-1.36-.27-1.94-.06s-1.13.55-1.41,1.1-.31,1.07-.12,1.66h0Z"/>
    <path d="M48.07,256.12c.55,2.52,1.38,4.98,2.45,7.33.19.41.75.84,1.1,1.08.5.36,1.12.7,1.71.89.56.17,1.8.43,1.35-.55-.53-1.17-.86-2.01-1.26-3.21s-.7-2.33-.96-3.52c-.09-.4-.46-.76-.74-1.01-.46-.41-1.06-.79-1.63-1.04-.26-.12-2.23-.86-2.03.03h0Z"/>
    <path d="M110.53,258.85c.22-16.62-10.8-33.17-27.28-37.4-4.7-1.21-9.61-1.3-14.36-.34-1.12.23-.86,1.41-.33,2.1.65.85,1.99,1.72,3.12,1.49,7-1.41,14.24-.26,20.18,3.67s9.96,9.69,12.23,16.15c1.38,3.93,2.08,8.1,2.02,12.26-.02,1.15,1.03,2.08,2,2.53.57.26,2.4.7,2.42-.46h0Z"/>
    <path d="M53.45,288.03c7.17,2.98,15.03,4.2,22.77,3.9,7.46-.29,14.78-2.26,20.93-6.61.38-.27-1.59-.49-1.72-.51-.72-.07-2.42-.39-3.08.07-5.05,3.58-11.02,5.7-17.18,6.23-5.78.5-11.56-.8-16.89-3.02-.93-.39-2.07-.38-3.06-.4-.42,0-1.12-.11-1.5.08-.04.02-.56.12-.27.25h0Z"/>
    <path d="M73.48,219.71c-9.43-1.89-19.38-.2-27.43,5.18s-13.19,14.65-14.48,24.42c-.74,5.6-.29,11.33,1.34,16.74.19.65,1.61,1.07,2.17,1.3.19.08,2.49.7,2.46.6-2.78-9.2-2.14-19.49,1.99-28.19s11.98-15.03,21.29-17.56c5.09-1.38,10.54-1.69,15.72-.65.81.16.93-.04.2-.5-.94-.6-2.17-1.12-3.27-1.34h0Z"/>
    <path d="M85.91,218.7c3.76-4.32,7.67-8.51,11.75-12.53,1.97-1.95,3.99-3.85,6.03-5.72,1.02-.93,2.06-1.86,3.1-2.78.99-.87,2.07-2.14,3.28-2.65l-2.43.06.35.04-2.37-.56c.62.5.8,1.97,1.01,2.7.25.87.48,1.75.69,2.63.46,1.91.85,3.83,1.16,5.77.62,3.95.92,7.95.89,11.95-.07,7.93-1.44,15.82-4.05,23.3-.09.25,4.66,1.41,4.97.52,3.74-10.7,4.92-22.22,3.43-33.46-.38-2.84-.92-5.66-1.64-8.44-.33-1.29-.63-2.67-1.13-3.91s-2.01-1.25-3.23-1.37c-.73-.07-1.58-.17-2.3.02-.6.16-1.04.62-1.5,1.02-1.17,1-2.33,2.02-3.47,3.05-2.12,1.9-4.21,3.84-6.25,5.83-4.62,4.48-9.05,9.16-13.27,14.02-.17.19,2.27.66,2.44.68.59.06,2.07.37,2.53-.16h0Z"/>
    <path d="M47.72,219.92c-5.25-5.26-10.07-10.91-14.46-16.9-.83-1.13-2.71-1.76-3.78-.53-2.94,3.41-4.2,7.71-5.19,12.02-1.13,4.95-2.18,9.97-2.5,15.05-.58,9.21,1.41,18.7,8.05,25.47.86.87,2.5.96,3.33.02.92-1.03.46-2.44-.39-3.31-5.59-5.7-6.84-14.28-6.22-21.92.38-4.62,1.32-9.18,2.34-13.7.82-3.65,1.8-7.4,4.3-10.3l-3.78-.53c4.65,6.35,9.79,12.33,15.35,17.91.86.87,2.49.96,3.33.02.91-1.02.47-2.44-.39-3.31h0Z"/>
    <path d="M47.39,273.16c-5.25,2.44-9.89,6.15-13.43,10.72-.22.28.1.8.24,1,.32.47.86.9,1.34,1.19.56.34,2.08,1.2,2.66.45,3.45-4.45,7.89-7.98,13-10.35.91-.42-.44-1.71-.82-1.99-.67-.51-2.07-1.45-2.99-1.02h0Z"/>
    <path d="M48.03,280.76c-2.79,3.71-4.7,8.05-5.54,12.62-.06.32.22.88.34,1.14.26.58.6,1.16.96,1.67.12.17,1.35,1.75,1.46,1.16.82-4.48,2.66-8.69,5.4-12.33.16-.22,0-.61-.07-.82-.19-.55-.49-1.1-.79-1.59-.1-.16-1.49-2.2-1.75-1.86h0Z"/>
    <path d="M92.72,270.33c3.6-.28,7.26.08,10.69,1.26,1.65.57,3.28,1.29,4.8,2.17,1.39.81,2.78,1.75,3.43,3.27.99,2.32,5.8,1.63,4.63-1.1-1.71-4.01-6.57-6.32-10.44-7.72-4.36-1.58-9.01-2.28-13.64-1.92-1.11.09-2.37.75-2.2,2.05.15,1.21,1.59,2.07,2.73,1.98h0Z"/>
    <path d="M96.47,279.09c.96.43,1.9.9,2.82,1.4.22.12.43.24.64.36.22.13.12.07-.3-.17.06.03.12.07.18.11.12.07.24.14.36.21.45.27.9.55,1.34.83.48.31,1.08.61,1.67.68.3.04.89.05,1.07-.29.19-.36.05-.78-.15-1.1-.32-.51-.78-.94-1.28-1.26-1.98-1.28-4.05-2.42-6.19-3.39-.45-.2-1.03-.43-1.55-.37-.33.04-.7.23-.71.62,0,.46.28.9.57,1.22.43.47.96.9,1.54,1.16h0Z"/>
  </g>
</svg>