<svg width="171" height="14" viewBox="0 0 171 14" fill="none" xmlns="http://www.w3.org/2000/svg">
<path d="M0 7.42047C0 5.97516 0.25 4.78571 0.75 3.85211C1.25391 2.91852 1.75391 2.21344 2.25 1.73688C2.45312 1.54156 2.61719 1.49469 2.74219 1.59625L3.23438 1.98883C3.36719 2.0943 3.36719 2.23492 3.23438 2.41071C2.92578 2.81305 2.60156 3.38336 2.26172 4.12164C1.92578 4.85602 1.75781 5.95563 1.75781 7.42047C1.75781 8.88531 1.92578 9.98492 2.26172 10.7193C2.60156 11.4576 2.92578 12.0279 3.23438 12.4302C3.36719 12.606 3.36719 12.7466 3.23438 12.8521L2.74219 13.2447C2.61719 13.3463 2.45312 13.2994 2.25 13.1041C1.75391 12.6275 1.25391 11.9224 0.75 10.9888C0.25 10.0552 0 8.86578 0 7.42047ZM7.73967 -2.95639e-05C8.99567 -2.95639e-05 10.0237 0.20397 10.8237 0.61197C11.6317 1.01197 12.1957 1.59997 12.5157 2.37597H11.3157C11.0117 2.02397 10.5637 1.73997 9.97167 1.52397C9.37967 1.29997 8.63567 1.18797 7.73967 1.18797C7.20367 1.18797 6.71167 1.23197 6.26367 1.31997C5.81567 1.40797 5.42367 1.53997 5.08767 1.71597C4.74367 1.89197 4.45567 2.11197 4.22367 2.37597H3.02367C3.42367 1.54397 4.03567 0.939971 4.85967 0.563971C5.68367 0.187971 6.64367 -2.95639e-05 7.73967 -2.95639e-05ZM8.20898 3.34235C8.20898 2.97906 8.33594 2.67047 8.58984 2.41656C8.84766 2.15875 9.1582 2.02985 9.52148 2.02985C9.88477 2.02985 10.1934 2.15875 10.4473 2.41656C10.7051 2.67047 10.834 2.97906 10.834 3.34235C10.834 3.70563 10.7051 4.01617 10.4473 4.27399C10.1934 4.52789 9.88477 4.65485 9.52148 4.65485C9.1582 4.65485 8.84766 4.52789 8.58984 4.27399C8.33594 4.01617 8.20898 3.70563 8.20898 3.34235ZM9.0293 3.34235C9.0293 3.48297 9.07617 3.60016 9.16992 3.69391C9.26367 3.78766 9.38086 3.83453 9.52148 3.83453C9.66211 3.83453 9.7793 3.78766 9.87305 3.69391C9.9668 3.60016 10.0137 3.48297 10.0137 3.34235C10.0137 3.20172 9.9668 3.08453 9.87305 2.99078C9.7793 2.89703 9.66211 2.85016 9.52148 2.85016C9.38086 2.85016 9.26367 2.89703 9.16992 2.99078C9.07617 3.08453 9.0293 3.20172 9.0293 3.34235ZM15.4169 13.488C14.5849 13.488 13.8489 13.396 13.2089 13.212C12.5689 13.036 12.0369 12.768 11.6129 12.408C11.1809 12.056 10.8569 11.624 10.6409 11.112H11.8409C12.0489 11.344 12.3169 11.548 12.6449 11.724C12.9729 11.908 13.3689 12.048 13.8329 12.144C14.2969 12.248 14.8249 12.3 15.4169 12.3C15.9609 12.3 16.4529 12.256 16.8929 12.168C17.3409 12.08 17.7329 11.948 18.0689 11.772C18.4129 11.596 18.7009 11.376 18.9329 11.112H20.1329C19.7329 11.944 19.1209 12.548 18.2969 12.924C17.4729 13.3 16.5129 13.488 15.4169 13.488ZM17.9009 10.728C17.4049 10.728 16.9569 10.66 16.5569 10.524C16.1569 10.388 15.7769 10.212 15.4169 9.99597L16.0529 8.71197C16.1729 8.77597 16.3249 8.85597 16.5089 8.95197C16.7009 9.03997 16.9129 9.11997 17.1449 9.19197C17.3769 9.25597 17.6129 9.28797 17.8529 9.28797C18.0849 9.28797 18.2889 9.23997 18.4649 9.14397C18.6409 9.04797 18.7809 8.91597 18.8849 8.74797C18.9889 8.57197 19.0409 8.37197 19.0409 8.14797C19.0409 7.97197 19.0089 7.78797 18.9449 7.59597C18.8809 7.40397 18.7689 7.21197 18.6089 7.01997C18.4569 6.82797 18.2369 6.63997 17.9489 6.45597C17.6689 6.27197 17.3049 6.10397 16.8569 5.95197V1.48797H18.6449V5.19597C19.0049 5.36397 19.3209 5.54797 19.5929 5.74797C19.8729 5.94797 20.1049 6.17197 20.2889 6.41997C20.4729 6.65997 20.6089 6.92397 20.6969 7.21197C20.7929 7.49997 20.8409 7.81597 20.8409 8.15997C20.8409 8.63997 20.7209 9.07597 20.4809 9.46797C20.2489 9.85197 19.9129 10.16 19.4729 10.392C19.0329 10.616 18.5089 10.728 17.9009 10.728ZM25.2006 -2.95639e-05C26.4566 -2.95639e-05 27.4846 0.20397 28.2846 0.61197C29.0926 1.01197 29.6566 1.59997 29.9766 2.37597H28.7766C28.4726 2.02397 28.0246 1.73997 27.4326 1.52397C26.8406 1.29997 26.0966 1.18797 25.2006 1.18797C24.6646 1.18797 24.1726 1.23197 23.7246 1.31997C23.2766 1.40797 22.8846 1.53997 22.5486 1.71597C22.2046 1.89197 21.9166 2.11197 21.6846 2.37597H20.4846C20.8846 1.54397 21.4966 0.939971 22.3206 0.563971C23.1446 0.187971 24.1046 -2.95639e-05 25.2006 -2.95639e-05ZM25.6699 3.34235C25.6699 2.97906 25.7969 2.67047 26.0508 2.41656C26.3086 2.15875 26.6191 2.02985 26.9824 2.02985C27.3457 2.02985 27.6543 2.15875 27.9082 2.41656C28.166 2.67047 28.2949 2.97906 28.2949 3.34235C28.2949 3.70563 28.166 4.01617 27.9082 4.27399C27.6543 4.52789 27.3457 4.65485 26.9824 4.65485C26.6191 4.65485 26.3086 4.52789 26.0508 4.27399C25.7969 4.01617 25.6699 3.70563 25.6699 3.34235ZM26.4902 3.34235C26.4902 3.48297 26.5371 3.60016 26.6309 3.69391C26.7246 3.78766 26.8418 3.83453 26.9824 3.83453C27.123 3.83453 27.2402 3.78766 27.334 3.69391C27.4277 3.60016 27.4746 3.48297 27.4746 3.34235C27.4746 3.20172 27.4277 3.08453 27.334 2.99078C27.2402 2.89703 27.123 2.85016 26.9824 2.85016C26.8418 2.85016 26.7246 2.89703 26.6309 2.99078C26.5371 3.08453 26.4902 3.20172 26.4902 3.34235ZM33.4688 12.8521C33.3359 12.7466 33.3359 12.606 33.4688 12.4302C33.7773 12.0279 34.0996 11.4576 34.4355 10.7193C34.7754 9.98492 34.9453 8.88531 34.9453 7.42047C34.9453 5.95563 34.7754 4.85602 34.4355 4.12164C34.0996 3.38336 33.7773 2.81305 33.4688 2.41071C33.3359 2.23492 33.3359 2.0943 33.4688 1.98883L33.9609 1.59625C34.0859 1.49469 34.25 1.54156 34.4531 1.73688C34.9492 2.21344 35.4473 2.91852 35.9473 3.85211C36.4512 4.78571 36.7031 5.97516 36.7031 7.42047C36.7031 8.86578 36.4512 10.0552 35.9473 10.9888C35.4473 11.9224 34.9492 12.6275 34.4531 13.1041C34.25 13.2994 34.0859 13.3463 33.9609 13.2447L33.4688 12.8521ZM37.8257 4.03197C38.0497 3.99197 38.2977 3.93597 38.5697 3.86397C38.8417 3.79197 39.0857 3.72797 39.3017 3.67197C39.5337 3.59997 39.8457 3.49997 40.2377 3.37197C40.6377 3.24397 41.0777 3.11597 41.5577 2.98797C42.0377 2.85997 42.5257 2.75197 43.0217 2.66397C43.5257 2.56797 43.9937 2.51997 44.4257 2.51997C45.1537 2.51997 45.8097 2.65597 46.3937 2.92797C46.9777 3.19997 47.4417 3.59197 47.7857 4.10397C48.1297 4.61597 48.3017 5.24397 48.3017 5.98797C48.3017 6.53197 48.2017 7.03597 48.0017 7.49997C47.8017 7.96397 47.5057 8.37997 47.1137 8.74797C46.7297 9.11597 46.2617 9.43597 45.7097 9.70797C45.1577 9.97997 44.5257 10.2 43.8137 10.368C43.1097 10.528 42.3337 10.628 41.4857 10.668L40.7897 9.07197C41.6057 9.05597 42.3617 8.98397 43.0577 8.85597C43.7617 8.71997 44.3777 8.52797 44.9057 8.27997C45.4337 8.02397 45.8457 7.70397 46.1417 7.31997C46.4377 6.93597 46.5857 6.48397 46.5857 5.96397C46.5857 5.58797 46.5017 5.25197 46.3337 4.95597C46.1657 4.65197 45.9137 4.41197 45.5777 4.23597C45.2497 4.05997 44.8457 3.97197 44.3657 3.97197C44.0137 3.97197 43.6257 4.01597 43.2017 4.10397C42.7777 4.18397 42.3417 4.29197 41.8937 4.42797C41.4537 4.56397 41.0217 4.71197 40.5977 4.87197C40.1737 5.02397 39.7817 5.17597 39.4217 5.32797C39.0617 5.47997 38.7577 5.60797 38.5097 5.71197L37.8257 4.03197ZM49.1777 6.92397V6.32397H59.2337V6.92397H49.1777ZM59.2324 6.92397V6.32397H69.2884V6.92397H59.2324ZM71.8551 11.184L73.2591 7.03197L69.8991 4.79997H73.9911L75.4911 0.33597L76.9911 4.79997H81.0831L77.7231 7.03197L79.1031 11.184L75.4911 8.51997L71.8551 11.184ZM73.1751 9.37197L75.4911 7.61997L77.8071 9.37197L76.8591 6.75597L78.9711 5.38797H76.4391L75.4911 2.49597L74.5311 5.38797H71.9871L74.1231 6.75597L73.1751 9.37197ZM83.9883 4.40875L82.8398 3.91656C82.5039 3.77203 82.418 3.55524 82.582 3.26617L82.6875 3.08453C82.8516 2.80328 83.0801 2.77203 83.373 2.99078L84.375 3.74078L84.2285 2.49274C84.1855 2.12946 84.3281 1.94781 84.6562 1.94781H84.8672C85.1953 1.94781 85.3379 2.12946 85.2949 2.49274L85.1484 3.74078L86.1504 2.99078C86.4473 2.76813 86.6777 2.80133 86.8418 3.09039L86.9473 3.27203C87.1113 3.55719 87.0234 3.77203 86.6836 3.91656L85.5352 4.40875L86.6895 4.9068C87.0254 5.05133 87.1113 5.26422 86.9473 5.54547L86.8418 5.72711C86.6777 6.01227 86.4492 6.04547 86.1562 5.82672L85.1484 5.07672L85.2949 6.31891C85.3379 6.6861 85.1934 6.86969 84.8613 6.86969H84.6562C84.3281 6.86969 84.1855 6.6861 84.2285 6.31891L84.375 5.07672L83.373 5.82672C83.0762 6.04938 82.8457 6.01813 82.6816 5.73297L82.5762 5.55133C82.4082 5.26617 82.4961 5.04938 82.8398 4.90094L83.9883 4.40875ZM88.834 10.608C88.5605 10.608 88.4238 10.4615 88.4238 10.1685V9.38336C88.4238 9.09039 88.5605 8.94391 88.834 8.94391H89.7246C89.998 8.94391 90.1348 9.09039 90.1348 9.38336V10.1685C90.1348 10.4615 89.998 10.608 89.7246 10.608H88.834ZM88.834 6.11969C88.5605 6.11969 88.4238 5.97321 88.4238 5.68024V4.89508C88.4238 4.60211 88.5605 4.45563 88.834 4.45563H89.7246C89.998 4.45563 90.1348 4.60211 90.1348 4.89508V5.68024C90.1348 5.97321 89.998 6.11969 89.7246 6.11969H88.834ZM97.2363 4.51197C97.5243 4.51197 97.7803 4.58397 98.0043 4.72797C98.2363 4.86397 98.4203 5.04797 98.5563 5.27997C98.7003 5.50397 98.7723 5.75997 98.7723 6.04797C98.7723 6.32797 98.7003 6.58397 98.5563 6.81597C98.4203 7.04797 98.2363 7.23597 98.0043 7.37997C97.7803 7.51597 97.5243 7.58397 97.2363 7.58397C96.9563 7.58397 96.7003 7.51597 96.4683 7.37997C96.2363 7.23597 96.0483 7.04797 95.9043 6.81597C95.7683 6.58397 95.7003 6.32797 95.7003 6.04797C95.7003 5.75997 95.7683 5.50397 95.9043 5.27997C96.0483 5.04797 96.2363 4.86397 96.4683 4.72797C96.7003 4.58397 96.9563 4.51197 97.2363 4.51197ZM104.124 1.90797C104.124 2.10797 104.176 2.28397 104.28 2.43597C104.392 2.58797 104.528 2.66397 104.688 2.66397C104.84 2.66397 104.972 2.59197 105.084 2.44797C105.196 2.29597 105.252 2.11597 105.252 1.90797C105.252 1.69997 105.196 1.51997 105.084 1.36797C104.972 1.21597 104.84 1.13997 104.688 1.13997C104.528 1.13997 104.392 1.21597 104.28 1.36797C104.176 1.51997 104.124 1.69997 104.124 1.90797ZM103.5 1.90797C103.5 1.61997 103.552 1.35997 103.656 1.12797C103.76 0.887971 103.904 0.699971 104.088 0.563971C104.272 0.419971 104.472 0.347971 104.688 0.347971C104.912 0.347971 105.112 0.419971 105.288 0.563971C105.472 0.699971 105.616 0.887971 105.72 1.12797C105.832 1.35997 105.888 1.61997 105.888 1.90797C105.888 2.19597 105.832 2.45997 105.72 2.69997C105.616 2.93197 105.472 3.11997 105.288 3.26397C105.112 3.39997 104.912 3.46797 104.688 3.46797C104.472 3.46797 104.272 3.39997 104.088 3.26397C103.904 3.11997 103.76 2.92797 103.656 2.68797C103.552 2.44797 103.5 2.18797 103.5 1.90797ZM110.584 10.608C110.311 10.608 110.174 10.4615 110.174 10.1685V2.64508C110.174 2.35211 110.311 2.20563 110.584 2.20563H112.283C112.51 2.20563 112.672 2.36188 112.77 2.67438L114.357 7.81305C114.428 8.03571 114.477 8.2193 114.504 8.36383C114.531 8.50446 114.555 8.67242 114.574 8.86774H114.609C114.629 8.67242 114.652 8.50446 114.68 8.36383C114.707 8.2193 114.756 8.03571 114.826 7.81305L116.414 2.67438C116.512 2.36188 116.674 2.20563 116.9 2.20563H118.6C118.873 2.20563 119.01 2.35211 119.01 2.64508V10.1685C119.01 10.4615 118.873 10.608 118.6 10.608H117.709C117.436 10.608 117.299 10.4615 117.299 10.1685V5.32867C117.299 5.0943 117.309 4.85992 117.328 4.62555H117.287L115.594 10.1334C115.496 10.4498 115.328 10.608 115.09 10.608H114.094C113.855 10.608 113.688 10.4498 113.59 10.1334L111.896 4.62555H111.855C111.875 4.85992 111.885 5.0943 111.885 5.32867V10.1685C111.885 10.4615 111.748 10.608 111.475 10.608H110.584ZM120.363 4.91266C120.258 4.60797 120.322 4.45563 120.557 4.45563H121.605C121.785 4.45563 121.902 4.55524 121.957 4.75446L122.842 8.02985C122.885 8.18219 122.922 8.37946 122.953 8.62164C122.988 8.85992 123.006 9.01227 123.006 9.07867H123.041C123.088 8.87164 123.121 8.70758 123.141 8.58649C123.164 8.46149 123.225 8.22125 123.322 7.86578L124.16 4.75446C124.215 4.55524 124.332 4.45563 124.512 4.45563H125.561C125.791 4.45563 125.855 4.60797 125.754 4.91266L123.779 10.8541C123.549 11.5494 123.266 12.0923 122.93 12.483C122.594 12.8736 122.127 13.0689 121.529 13.0689C121.201 13.0689 120.908 13.0416 120.65 12.9869C120.502 12.9556 120.445 12.8541 120.48 12.6822L120.609 12.0377C120.645 11.8697 120.744 11.8111 120.908 11.8619C121.029 11.9009 121.143 11.9205 121.248 11.9205C121.564 11.9205 121.805 11.7701 121.969 11.4693C122.137 11.1685 122.248 10.9107 122.303 10.6959L122.32 10.608L120.363 4.91266ZM130.998 10.608C130.764 10.608 130.646 10.4908 130.646 10.2564V4.80719C130.646 4.57281 130.764 4.45563 130.998 4.45563H131.924C132.158 4.45563 132.275 4.57281 132.275 4.80719V5.28766H132.299C132.4 5.03766 132.57 4.81696 132.809 4.62555C133.047 4.43414 133.328 4.33844 133.652 4.33844C133.875 4.33844 134.059 4.36578 134.203 4.42047C134.34 4.47125 134.393 4.565 134.361 4.70172L134.197 5.39899C134.162 5.55524 134.057 5.60211 133.881 5.53961C133.779 5.50446 133.682 5.48688 133.588 5.48688C133.213 5.48688 132.902 5.71149 132.656 6.16071C132.41 6.60992 132.287 7.26422 132.287 8.1236V10.2564C132.287 10.4908 132.17 10.608 131.936 10.608H130.998ZM134.924 7.5318C134.924 6.54352 135.17 5.76422 135.662 5.19391C136.158 4.6236 136.857 4.33844 137.76 4.33844C138.807 4.33844 139.584 4.60797 140.092 5.14703C140.6 5.6861 140.854 6.55328 140.854 7.7486C140.854 7.98297 140.744 8.10016 140.525 8.10016H136.658C136.721 8.7486 136.881 9.1568 137.139 9.32477C137.396 9.49274 137.695 9.57672 138.035 9.57672C138.359 9.57672 138.607 9.53375 138.779 9.44781C138.951 9.36188 139.096 9.24469 139.213 9.09625C139.346 8.92438 139.51 8.89703 139.705 9.01422L140.291 9.37164C140.521 9.51227 140.555 9.68024 140.391 9.87555C140.152 10.1607 139.873 10.3736 139.553 10.5142C139.232 10.6548 138.727 10.7252 138.035 10.7252C136.914 10.7252 136.115 10.44 135.639 9.86969C135.162 9.29938 134.924 8.52008 134.924 7.5318ZM136.664 6.92828H139.213C139.213 6.50641 139.107 6.16266 138.896 5.89703C138.686 5.6275 138.35 5.49274 137.889 5.49274C137.521 5.49274 137.23 5.62164 137.016 5.87946C136.801 6.13336 136.684 6.48297 136.664 6.92828ZM142.008 10.1978C141.816 10.0611 141.764 9.91461 141.85 9.75836L142.148 9.21344C142.254 9.01813 142.418 8.99469 142.641 9.14313C142.863 9.29156 143.125 9.40094 143.426 9.47125C143.73 9.54156 144.008 9.57672 144.258 9.57672C144.434 9.57672 144.598 9.55914 144.75 9.52399C144.902 9.48883 145.031 9.42047 145.137 9.31891C145.242 9.21735 145.295 9.06891 145.295 8.8736C145.295 8.75641 145.264 8.6568 145.201 8.57477C145.139 8.49274 145.059 8.43024 144.961 8.38727C144.863 8.3443 144.76 8.30914 144.65 8.2818C144.506 8.24664 144.297 8.18805 144.023 8.10602C143.754 8.02399 143.494 7.92828 143.244 7.81891C143.037 7.72906 142.834 7.60406 142.635 7.44391C142.439 7.27985 142.295 7.09821 142.201 6.89899C142.111 6.69977 142.066 6.45367 142.066 6.16071C142.066 5.76617 142.18 5.42047 142.406 5.1236C142.637 4.82672 142.934 4.62164 143.297 4.50836C143.66 4.39508 144.113 4.33844 144.656 4.33844C145.023 4.33844 145.381 4.39117 145.729 4.49664C146.076 4.60211 146.324 4.70172 146.473 4.79547C146.707 4.94391 146.766 5.10211 146.648 5.27008L146.291 5.79156C146.182 5.94781 146.006 5.95953 145.764 5.82672C145.58 5.72516 145.398 5.64313 145.219 5.58063C145.043 5.51813 144.846 5.48688 144.627 5.48688C144.479 5.48688 144.336 5.5025 144.199 5.53375C144.062 5.565 143.945 5.6236 143.848 5.70953C143.754 5.79547 143.707 5.90875 143.707 6.04938C143.707 6.19781 143.75 6.315 143.836 6.40094C143.926 6.48297 144.027 6.54352 144.141 6.58258C144.258 6.62164 144.369 6.65875 144.475 6.69391C144.693 6.76422 144.914 6.83258 145.137 6.89899C145.359 6.96149 145.586 7.03766 145.816 7.1275C146.016 7.20563 146.209 7.31696 146.396 7.46149C146.584 7.60602 146.721 7.78961 146.807 8.01227C146.893 8.23492 146.936 8.48883 146.936 8.77399C146.936 9.15289 146.822 9.50446 146.596 9.82867C146.369 10.1529 146.07 10.3834 145.699 10.5201C145.328 10.6568 144.896 10.7252 144.404 10.7252C143.854 10.7252 143.385 10.6861 142.998 10.608C142.611 10.5298 142.281 10.3931 142.008 10.1978ZM148.014 8.05328V4.80719C148.014 4.57281 148.131 4.45563 148.365 4.45563H149.303C149.537 4.45563 149.654 4.57281 149.654 4.80719V7.63141C149.654 8.48297 149.713 9.02008 149.83 9.24274C149.947 9.46539 150.193 9.57672 150.568 9.57672C150.967 9.57672 151.27 9.41852 151.477 9.10211C151.684 8.7818 151.787 8.11969 151.787 7.11578V4.80719C151.787 4.57281 151.904 4.45563 152.139 4.45563H153.076C153.311 4.45563 153.428 4.57281 153.428 4.80719V10.2564C153.428 10.4908 153.311 10.608 153.076 10.608H152.15C151.916 10.608 151.799 10.4908 151.799 10.2564V9.91656H151.775C151.596 10.2252 151.367 10.438 151.09 10.5552C150.812 10.6685 150.484 10.7252 150.105 10.7252C149.508 10.7252 149.01 10.5338 148.611 10.1509C148.213 9.76813 148.014 9.06891 148.014 8.05328ZM155.373 10.608C155.139 10.608 155.021 10.4908 155.021 10.2564V4.80719C155.021 4.57281 155.139 4.45563 155.373 4.45563H156.299C156.533 4.45563 156.65 4.57281 156.65 4.80719V5.14703H156.674C156.787 4.89703 156.979 4.69977 157.248 4.55524C157.518 4.41071 157.77 4.33844 158.004 4.33844C158.473 4.33844 158.836 4.44781 159.094 4.66656C159.355 4.88531 159.535 5.12946 159.633 5.39899H159.656C159.996 4.95758 160.303 4.67047 160.576 4.53766C160.854 4.40485 161.207 4.33844 161.637 4.33844C162.215 4.33844 162.701 4.52985 163.096 4.91266C163.494 5.29547 163.693 5.99469 163.693 7.01031V10.2564C163.693 10.4908 163.576 10.608 163.342 10.608H162.404C162.17 10.608 162.053 10.4908 162.053 10.2564V7.43219C162.053 6.58063 161.994 6.04352 161.877 5.82086C161.764 5.59821 161.561 5.48688 161.268 5.48688C160.994 5.48688 160.744 5.64703 160.518 5.96735C160.291 6.28766 160.178 6.94781 160.178 7.94781V10.2564C160.178 10.4908 160.061 10.608 159.826 10.608H158.889C158.654 10.608 158.537 10.4908 158.537 10.2564V7.43219C158.537 6.58063 158.479 6.04352 158.361 5.82086C158.248 5.59821 158.045 5.48688 157.752 5.48688C157.479 5.48688 157.229 5.64703 157.002 5.96735C156.775 6.28375 156.662 6.94391 156.662 7.94781V10.2564C156.662 10.4908 156.545 10.608 156.311 10.608H155.373ZM164.947 7.5318C164.947 6.54352 165.193 5.76422 165.686 5.19391C166.182 4.6236 166.881 4.33844 167.783 4.33844C168.83 4.33844 169.607 4.60797 170.115 5.14703C170.623 5.6861 170.877 6.55328 170.877 7.7486C170.877 7.98297 170.768 8.10016 170.549 8.10016H166.682C166.744 8.7486 166.904 9.1568 167.162 9.32477C167.42 9.49274 167.719 9.57672 168.059 9.57672C168.383 9.57672 168.631 9.53375 168.803 9.44781C168.975 9.36188 169.119 9.24469 169.236 9.09625C169.369 8.92438 169.533 8.89703 169.729 9.01422L170.314 9.37164C170.545 9.51227 170.578 9.68024 170.414 9.87555C170.176 10.1607 169.896 10.3736 169.576 10.5142C169.256 10.6548 168.75 10.7252 168.059 10.7252C166.938 10.7252 166.139 10.44 165.662 9.86969C165.186 9.29938 164.947 8.52008 164.947 7.5318ZM166.688 6.92828H169.236C169.236 6.50641 169.131 6.16266 168.92 5.89703C168.709 5.6275 168.373 5.49274 167.912 5.49274C167.545 5.49274 167.254 5.62164 167.039 5.87946C166.824 6.13336 166.707 6.48297 166.688 6.92828Z" fill="black"/>
</svg>
